<?xml version="1.0" standalone="no"?>
<!DOCTYPE svg PUBLIC "-//W3C//DTD SVG 20010904//EN"
 "http://www.w3.org/TR/2001/REC-SVG-20010904/DTD/svg10.dtd">
<svg version="1.0" xmlns="http://www.w3.org/2000/svg"
 width="128.000000pt" height="128.000000pt" viewBox="0 0 128.000000 128.000000"
 preserveAspectRatio="xMidYMid meet">

<g transform="translate(0.000000,128.000000) scale(0.100000,-0.100000)"
fill="#000000" stroke="none">
<path d="M0 640 l0 -640 640 0 640 0 0 640 0 640 -640 0 -640 0 0 -640z m608
210 c66 -41 90 -124 56 -196 -9 -19 -25 -39 -36 -45 -17 -9 -18 -6 -17 70 1
65 5 81 18 84 9 3 -31 5 -89 5 -58 0 -97 -2 -87 -5 19 -5 24 -33 5 -33 -10 0
-10 -2 0 -9 9 -5 12 -26 10 -67 l-3 -59 -32 32 c-31 29 -33 36 -33 96 0 62 2
67 35 99 20 18 43 36 53 40 33 13 87 8 120 -12z m499 3 c96 -45 98 -199 4
-248 -48 -24 -118 -20 -163 11 -41 29 -53 55 -52 121 2 103 111 164 211 116z
m-814 -7 c48 -20 69 -50 74 -103 8 -94 -63 -152 -184 -153 l-63 0 0 135 0 135
70 0 c39 0 85 -6 103 -14z m565 -95 c-3 -100 -5 -112 -27 -135 -31 -33 -87
-35 -125 -5 -33 26 -33 37 0 49 19 7 31 7 40 -1 8 -6 21 -9 29 -5 12 4 15 25
15 106 l0 100 36 0 36 0 -4 -109z m-260 -8 c3 -10 -13 -13 -57 -13 -47 0 -61
3 -61 15 0 11 12 14 57 12 34 -1 58 -7 61 -14z m-2 -90 c-1 -64 -2 -67 -28
-74 -16 -4 -40 -4 -55 0 -27 7 -28 11 -31 74 l-3 67 59 0 59 0 -1 -67z m-378
-111 c3 -8 -6 -12 -30 -10 -32 3 -33 2 -33 -32 0 -34 1 -35 33 -32 24 2 33 -2
30 -10 -6 -17 -52 -22 -78 -8 -25 13 -28 71 -4 95 19 19 75 17 82 -3z m197 4
c21 -15 23 -69 4 -92 -16 -19 -68 -18 -91 3 -56 51 24 135 87 89z m199 3 c43
-20 43 -78 0 -98 -14 -6 -38 -11 -54 -11 -30 0 -30 0 -30 60 0 60 0 60 30 60
16 0 40 -5 54 -11z m154 -52 c2 -46 0 -57 -13 -57 -12 0 -15 13 -15 61 0 81
24 77 28 -4z m155 26 l27 -38 0 38 c0 26 4 37 15 37 12 0 15 -13 15 -60 0 -51
-3 -60 -18 -60 -10 0 -30 19 -45 42 l-27 42 0 -42 c0 -23 -4 -42 -10 -42 -6 0
-10 27 -10 60 0 72 14 78 53 23z m255 19 c2 -8 -6 -12 -28 -10 -39 4 -61 -22
-44 -49 15 -24 54 -30 54 -9 0 9 -7 16 -15 16 -8 0 -15 5 -15 10 0 6 14 10 31
10 28 0 30 -2 27 -32 -3 -31 -6 -33 -45 -36 -33 -2 -44 1 -57 20 -22 30 -20
54 5 79 22 22 79 23 87 1z"/>
<path d="M987 782 c-20 -22 -22 -80 -3 -104 7 -10 27 -21 44 -24 64 -13 109
79 62 126 -26 26 -81 26 -103 2z"/>
<path d="M190 730 l0 -70 38 0 c50 0 62 14 62 72 0 43 -3 50 -26 58 -14 6 -36
10 -50 10 -23 0 -24 -2 -24 -70z"/>
<path d="M350 525 c-26 -31 13 -82 44 -56 19 16 21 42 4 59 -16 16 -33 15 -48
-3z"/>
<path d="M560 501 c0 -42 8 -48 41 -31 32 17 22 52 -18 64 -21 7 -23 4 -23
-33z"/>
</g>
</svg>
